@startuml ER_Users

entity Promocodes {
  *id : integer (PK)
  maintainer_id : integer
  data : varchar
  discount : float
  created_at : timestamp
  end_at : timestamp
}

entity Comments {
  *id : integer (PK)
  user_id : integer 
  text : text
  created_at : timestamp
  promocode_id : integer (FK)
}

entity Likes {
  *id : integer
  user_id : integer 
  target : integer (FK)
  level : varchar
}

' Связи
Promocodes ||--o| Comments 
Likes |o--o| Promocodes 
Likes |o--o| Comments 

@enduml